{
	"asset":{
		"generator":"Khronos glTF Blender I/O v5.0.21",
		"version":"2.0"
	},
	"scene":0,
	"scenes":[
		{
			"name":"Scene",
			"nodes":[
				0,
				1,
				2,
				3,
				4,
				5,
				6,
				7,
				8,
				9,
				10,
				11,
				12,
				13,
				14,
				15,
				16,
				17,
				18,
				19,
				20,
				21,
				22,
				23,
				24,
				25,
				26,
				27,
				28,
				29,
				30,
				31,
				32,
				33,
				34,
				35,
				36,
				37,
				38,
				39,
				40,
				41,
				42,
				43,
				44,
				45,
				46,
				47,
				48,
				49,
				50,
				51,
				52,
				53,
				54,
				55,
				56,
				57,
				58,
				59,
				60,
				61,
				62,
				63,
				64,
				65,
				66,
				67
			]
		}
	],
	"nodes":[
		{
			"mesh":0,
			"name":"Cube -col",
			"translation":[
				2,
				1,
				0
			]
		},
		{
			"mesh":1,
			"name":"Plane -col",
			"rotation":[
				0.7071068286895752,
				0,
				0,
				0.7071068286895752
			],
			"translation":[
				-33,
				-6,
				-5
			]
		},
		{
			"mesh":2,
			"name":"Plane.001 -col",
			"rotation":[
				0,
				0,
				-0.7071068286895752,
				0.7071068286895752
			],
			"translation":[
				-44,
				-6,
				1
			]
		},
		{
			"mesh":3,
			"name":"Plane.002 -col",
			"rotation":[
				0,
				0,
				-0.7071068286895752,
				0.7071068286895752
			],
			"translation":[
				-44,
				-6,
				-2
			]
		},
		{
			"mesh":4,
			"name":"Plane.004 -col",
			"rotation":[
				0,
				0,
				-0.7071068286895752,
				0.7071068286895752
			],
			"translation":[
				-44,
				-6,
				3
			]
		},
		{
			"mesh":5,
			"name":"Plane -col.001",
			"rotation":[
				0.7071068286895752,
				0,
				0,
				0.7071068286895752
			],
			"translation":[
				-36,
				-9,
				-5
			]
		},
		{
			"mesh":6,
			"name":"Plane.004 -col.001",
			"rotation":[
				-0.5,
				0.5,
				-0.5,
				0.5000000596046448
			],
			"translation":[
				-30,
				-13,
				10
			]
		},
		{
			"mesh":7,
			"name":"Plane.004 -col.002",
			"rotation":[
				-0.5,
				0.5,
				-0.5,
				0.5000000596046448
			],
			"translation":[
				-39,
				-13,
				10
			]
		},
		{
			"mesh":8,
			"name":"Plane -col.002",
			"rotation":[
				0.5,
				0.5,
				-0.5,
				0.5
			],
			"translation":[
				-34,
				-13,
				0
			]
		},
		{
			"mesh":9,
			"name":"Plane -col.004",
			"rotation":[
				0.7071068286895752,
				0,
				0,
				0.7071068286895752
			],
			"translation":[
				-36,
				-20,
				-5
			]
		},
		{
			"mesh":10,
			"name":"Plane.004 -col.003",
			"rotation":[
				0,
				0,
				-0.7071068286895752,
				0.7071068286895752
			],
			"translation":[
				-44,
				-20,
				2
			]
		},
		{
			"mesh":11,
			"name":"Plane.004 -col.004",
			"rotation":[
				0.7071068286895752,
				-0.7071068286895752,
				0,
				3.456070203355921e-07
			],
			"translation":[
				-24,
				-20,
				-2
			]
		},
		{
			"mesh":12,
			"name":"Plane.004 -col.005",
			"rotation":[
				0.7071068286895752,
				-0.7071068286895752,
				0,
				3.456070203355921e-07
			],
			"translation":[
				-24,
				-20,
				14
			]
		},
		{
			"mesh":13,
			"name":"Plane.004 -col.006",
			"rotation":[
				0,
				0,
				-0.7071068286895752,
				0.7071068286895752
			],
			"translation":[
				-44,
				-20,
				-14
			]
		},
		{
			"mesh":14,
			"name":"Plane -col.005",
			"rotation":[
				0.7071068286895752,
				0,
				0,
				0.7071068286895752
			],
			"translation":[
				-36,
				-23,
				-5
			]
		},
		{
			"mesh":15,
			"name":"Plane -col.006",
			"rotation":[
				0.5,
				-0.5,
				0.5,
				0.5
			],
			"translation":[
				-34,
				-28,
				0
			]
		},
		{
			"mesh":16,
			"name":"Plane.004 -col.007",
			"rotation":[
				0.4999998211860657,
				-0.4999997615814209,
				-0.5000002384185791,
				0.5000002384185791
			],
			"translation":[
				-36,
				-28,
				-10
			]
		},
		{
			"mesh":17,
			"name":"Plane.004 -col.008",
			"rotation":[
				0.4999998211860657,
				-0.4999997615814209,
				-0.5000002384185791,
				0.5000002384185791
			],
			"translation":[
				-22,
				-28,
				-10
			]
		},
		{
			"mesh":18,
			"name":"Plane.004 -col.009",
			"rotation":[
				0.4999998211860657,
				-0.4999997615814209,
				-0.5000002384185791,
				0.5000002384185791
			],
			"translation":[
				-26,
				-28,
				-10
			]
		},
		{
			"mesh":2,
			"name":"Plane.001 -col.001",
			"rotation":[
				-0.5,
				0.5,
				-0.5,
				0.5000000596046448
			],
			"translation":[
				-32,
				-13,
				10
			]
		},
		{
			"mesh":2,
			"name":"Plane.001 -col.002",
			"rotation":[
				0.7071068286895752,
				-0.7071068286895752,
				0,
				1.1520234011186403e-07
			],
			"translation":[
				-24,
				-20,
				5
			]
		},
		{
			"mesh":19,
			"name":"Plane.004 -col.010",
			"rotation":[
				0.7071068286895752,
				-0.7071068286895752,
				0,
				3.680835050090536e-07
			],
			"translation":[
				-24,
				-26,
				-3
			]
		},
		{
			"mesh":20,
			"name":"Plane.004 -col.011",
			"rotation":[
				0.7071068286895752,
				-0.7071068286895752,
				0,
				3.680835050090536e-07
			],
			"translation":[
				-24,
				-28,
				5
			]
		},
		{
			"mesh":21,
			"name":"Plane.004 -col.012",
			"rotation":[
				-0.5000002384185791,
				0.5000002384185791,
				-0.4999997615814209,
				0.4999998211860657
			],
			"translation":[
				-46,
				-28,
				10
			]
		},
		{
			"mesh":22,
			"name":"Plane.004 -col.013",
			"rotation":[
				-0.5000002384185791,
				0.5000002384185791,
				-0.4999997615814209,
				0.4999998211860657
			],
			"translation":[
				-43,
				-28,
				10
			]
		},
		{
			"mesh":23,
			"name":"Plane -col.007",
			"rotation":[
				0.7071068286895752,
				0,
				0,
				0.7071068286895752
			],
			"translation":[
				-36,
				-33,
				-5
			]
		},
		{
			"mesh":24,
			"name":"Plane.004 -col.015",
			"rotation":[
				0,
				0,
				-0.7071068286895752,
				0.7071068286895752
			],
			"translation":[
				-44,
				-35,
				2
			]
		},
		{
			"mesh":25,
			"name":"Plane.004 -col.016",
			"rotation":[
				0.7071068286895752,
				-0.7071068286895752,
				0,
				3.456070203355921e-07
			],
			"translation":[
				-24,
				-35,
				-2
			]
		},
		{
			"mesh":26,
			"name":"Plane -col.008",
			"rotation":[
				0.7071068286895752,
				0,
				0,
				0.7071068286895752
			],
			"translation":[
				-36,
				-38,
				-5
			]
		},
		{
			"mesh":27,
			"name":"Plane.004 -col.018",
			"rotation":[
				0,
				0,
				-0.7071068286895752,
				0.7071068286895752
			],
			"translation":[
				-44,
				-43,
				-8
			]
		},
		{
			"mesh":28,
			"name":"Plane.004 -col.019",
			"rotation":[
				0.7071068286895752,
				-0.7071068286895752,
				0,
				6.827818310739531e-07
			],
			"translation":[
				-24,
				-43,
				7
			]
		},
		{
			"mesh":29,
			"name":"Plane.004 -col.020",
			"rotation":[
				0.4999998211860657,
				-0.4999997615814209,
				-0.5000002384185791,
				0.5000002384185791
			],
			"translation":[
				-22,
				-43,
				-10
			]
		},
		{
			"mesh":30,
			"name":"Plane.004 -col.021",
			"rotation":[
				-0.5000003576278687,
				0.5000002980232239,
				-0.49999964237213135,
				0.4999997019767761
			],
			"translation":[
				-28,
				-35,
				10
			]
		},
		{
			"mesh":31,
			"name":"Plane.004 -col.022",
			"rotation":[
				-0.5000003576278687,
				0.5000002980232239,
				-0.49999964237213135,
				0.4999997019767761
			],
			"translation":[
				-28,
				-35,
				10
			]
		},
		{
			"mesh":32,
			"name":"Plane.004 -col.023",
			"rotation":[
				-0.5000003576278687,
				0.5000002980232239,
				-0.49999964237213135,
				0.4999997019767761
			],
			"translation":[
				-40,
				-35,
				10
			]
		},
		{
			"mesh":33,
			"name":"Plane.004 -col.024",
			"rotation":[
				-0.5000003576278687,
				0.5000002980232239,
				-0.49999964237213135,
				0.4999997019767761
			],
			"translation":[
				-45,
				-35,
				10
			]
		},
		{
			"mesh":34,
			"name":"Plane.004 -col.017",
			"rotation":[
				0.4999998211860657,
				-0.4999997615814209,
				-0.5000002384185791,
				0.5000002384185791
			],
			"translation":[
				-22,
				-43,
				-10
			]
		},
		{
			"mesh":35,
			"name":"Plane.004 -col.025",
			"rotation":[
				0.4999998211860657,
				-0.4999997615814209,
				-0.5000002384185791,
				0.5000002384185791
			],
			"translation":[
				-22,
				-43,
				0
			]
		},
		{
			"mesh":36,
			"name":"Plane.004 -col.026",
			"rotation":[
				-0.5000003576278687,
				0.5000002980232239,
				-0.49999964237213135,
				0.4999997019767761
			],
			"translation":[
				-46,
				-43,
				10
			]
		},
		{
			"mesh":37,
			"name":"Plane.004 -col.027",
			"rotation":[
				0.49999964237213135,
				-0.4999995827674866,
				-0.5000004172325134,
				0.5000004172325134
			],
			"translation":[
				-36,
				-35,
				-10
			]
		},
		{
			"mesh":38,
			"name":"Plane.004 -col.028",
			"rotation":[
				0.49999964237213135,
				-0.4999995827674866,
				-0.5000004172325134,
				0.5000004172325134
			],
			"translation":[
				-20,
				-35,
				-10
			]
		},
		{
			"mesh":39,
			"name":"Cube.001 -col",
			"translation":[
				-83,
				-69,
				-7.5
			]
		},
		{
			"mesh":40,
			"name":"Plane -col.003",
			"rotation":[
				0.7071068286895752,
				0,
				0,
				0.7071068286895752
			],
			"translation":[
				-36,
				-16,
				-5
			]
		},
		{
			"mesh":41,
			"name":"Plane.004 -col.014",
			"rotation":[
				0.7071068286895752,
				-0.7071068286895752,
				0,
				3.680835050090536e-07
			],
			"translation":[
				-24,
				-28,
				-3
			]
		},
		{
			"mesh":2,
			"name":"Plane.001 -col.003",
			"rotation":[
				-0.5,
				0.5,
				-0.5,
				0.5000000596046448
			],
			"translation":[
				-38,
				-30,
				10
			]
		},
		{
			"mesh":2,
			"name":"Plane.001 -col.005",
			"rotation":[
				0,
				0,
				-0.7071068286895752,
				0.7071068286895752
			],
			"translation":[
				-44,
				-20,
				-5
			]
		},
		{
			"mesh":42,
			"name":"Plane.001 -col.009",
			"rotation":[
				0.5000000596046448,
				-0.5,
				-0.5,
				0.5
			],
			"translation":[
				-29,
				-35,
				-10
			]
		},
		{
			"mesh":2,
			"name":"Plane.001 -col.004",
			"rotation":[
				0.7071068286895752,
				-0.7071068286895752,
				0,
				1.1520234011186403e-07
			],
			"translation":[
				-24,
				-35,
				5
			]
		},
		{
			"mesh":43,
			"name":"Plane.001 -col.006",
			"rotation":[
				0.7071068286895752,
				-0.7071068286895752,
				0,
				1.1520234011186403e-07
			],
			"translation":[
				-24,
				-28,
				-3
			]
		},
		{
			"mesh":2,
			"name":"Plane.001 -col.007",
			"rotation":[
				-0.5,
				0.5,
				-0.5,
				0.5000000596046448
			],
			"translation":[
				-35,
				-35,
				10
			]
		},
		{
			"mesh":2,
			"name":"Plane.001 -col.008",
			"rotation":[
				-0.5,
				0.5,
				-0.5,
				0.5000000596046448
			],
			"translation":[
				-40,
				-35,
				10
			]
		},
		{
			"mesh":44,
			"name":"Cube.001",
			"translation":[
				0,
				13,
				0
			]
		},
		{
			"mesh":45,
			"name":"Cube.002",
			"translation":[
				1.532426118850708,
				13,
				0
			]
		},
		{
			"name":"B\u00e9zierCurve",
			"rotation":[
				0.7071068286895752,
				0,
				0,
				0.7071068286895752
			],
			"translation":[
				1.306599497795105,
				13.362868309020996,
				0
			]
		},
		{
			"mesh":46,
			"name":"B\u00e9zierCurve.001",
			"rotation":[
				0.6767469048500061,
				0.2049723118543625,
				-0.2049723118543625,
				0.6767469048500061
			],
			"translation":[
				-47,
				-57.77531051635742,
				-8
			]
		},
		{
			"mesh":47,
			"name":"B\u00e9zierCurve.002",
			"rotation":[
				0.6767469048500061,
				0.2049723118543625,
				-0.2049723118543625,
				0.6767469048500061
			],
			"translation":[
				-48.317481994628906,
				-57.77531051635742,
				-7.1213178634643555
			]
		},
		{
			"mesh":48,
			"name":"Cube.003 -col",
			"translation":[
				-42,
				-32,
				-8
			]
		},
		{
			"mesh":49,
			"name":"Cube.003 -col.001",
			"translation":[
				-26,
				-32,
				-8
			]
		},
		{
			"mesh":50,
			"name":"Cube.003 -col.002",
			"translation":[
				-26,
				-32,
				8
			]
		},
		{
			"mesh":51,
			"name":"Cube.003 -col.003",
			"translation":[
				-42,
				-32,
				8
			]
		},
		{
			"mesh":52,
			"name":"B\u00e9zierCurve.003",
			"rotation":[
				0.6767954230308533,
				-0.20481200516223907,
				0.20481200516223907,
				0.6767954230308533
			],
			"translation":[
				-48.13239288330078,
				-57.77531051635742,
				6.722194194793701
			]
		},
		{
			"mesh":53,
			"name":"B\u00e9zierCurve.004",
			"rotation":[
				0.3337426483631134,
				-0.6233906745910645,
				0.6233906745910645,
				0.333742618560791
			],
			"translation":[
				-73.66133117675781,
				-75.5873794555664,
				-10.776300430297852
			]
		},
		{
			"mesh":54,
			"name":"B\u00e9zierCurve.005",
			"rotation":[
				0.3337426483631134,
				-0.6233906745910645,
				0.6233906745910645,
				0.333742618560791
			],
			"translation":[
				-73.66133117675781,
				-75.5873794555664,
				-12.953424453735352
			]
		},
		{
			"mesh":55,
			"name":"B\u00e9zierCurve.006",
			"rotation":[
				0.3337426483631134,
				-0.6233906745910645,
				0.6233906745910645,
				0.333742618560791
			],
			"translation":[
				-73.66133117675781,
				-68.43180847167969,
				-6.80344820022583
			]
		},
		{
			"mesh":56,
			"name":"B\u00e9zierCurve.007",
			"rotation":[
				0.6767954230308533,
				-0.20481200516223907,
				0.20481200516223907,
				0.6767954230308533
			],
			"translation":[
				-68.8415298461914,
				-58.662147521972656,
				1.186941146850586
			]
		},
		{
			"mesh":57,
			"name":"B\u00e9zierCurve.008",
			"rotation":[
				0.6767954230308533,
				-0.20481200516223907,
				0.20481200516223907,
				0.6767954230308533
			],
			"translation":[
				-68.8415298461914,
				-58.662147521972656,
				0.4737567901611328
			]
		},
		{
			"mesh":58,
			"name":"B\u00e9zierCurve.009",
			"rotation":[
				0.6767954230308533,
				-0.20481200516223907,
				0.20481200516223907,
				0.6767954230308533
			],
			"translation":[
				-68.8415298461914,
				-58.662147521972656,
				-2.1086788177490234
			]
		},
		{
			"mesh":59,
			"name":"Plane -col.009",
			"rotation":[
				0,
				0,
				-0.7071068286895752,
				0.7071068286895752
			],
			"translation":[
				-92.8223648071289,
				-64.49070739746094,
				-1.8137627840042114
			]
		}
	],
	"materials":[
		{
			"doubleSided":true,
			"name":"concrete",
			"pbrMetallicRoughness":{
				"baseColorFactor":[
					0.23821799457073212,
					0.23821799457073212,
					0.23821799457073212,
					1
				],
				"metallicFactor":0,
				"roughnessFactor":0.5
			}
		},
		{
			"doubleSided":true,
			"name":"warning_paint",
			"pbrMetallicRoughness":{
				"baseColorTexture":{
					"index":0
				},
				"metallicFactor":0,
				"roughnessFactor":0.5
			}
		},
		{
			"alphaMode":"BLEND",
			"doubleSided":true,
			"name":"fence",
			"pbrMetallicRoughness":{
				"baseColorTexture":{
					"index":1
				},
				"metallicFactor":0,
				"roughnessFactor":0.5
			}
		}
	],
	"meshes":[
		{
			"name":"Cube",
			"primitives":[
				{
					"attributes":{
						"POSITION":0,
						"NORMAL":1,
						"TEXCOORD_0":2
					},
					"indices":3,
					"material":0
				},
				{
					"attributes":{
						"POSITION":4,
						"NORMAL":5,
						"TEXCOORD_0":6
					},
					"indices":7,
					"material":1
				}
			]
		},
		{
			"name":"Plane",
			"primitives":[
				{
					"attributes":{
						"POSITION":8,
						"NORMAL":9,
						"TEXCOORD_0":10
					},
					"indices":11,
					"material":0
				}
			]
		},
		{
			"name":"Plane.001",
			"primitives":[
				{
					"attributes":{
						"POSITION":12,
						"NORMAL":13,
						"TEXCOORD_0":14
					},
					"indices":15,
					"material":0
				},
				{
					"attributes":{
						"POSITION":16,
						"NORMAL":17,
						"TEXCOORD_0":18
					},
					"indices":19,
					"material":1
				}
			]
		},
		{
			"name":"Plane.002",
			"primitives":[
				{
					"attributes":{
						"POSITION":20,
						"NORMAL":21,
						"TEXCOORD_0":22
					},
					"indices":23,
					"material":0
				}
			]
		},
		{
			"name":"Plane.004",
			"primitives":[
				{
					"attributes":{
						"POSITION":24,
						"NORMAL":25,
						"TEXCOORD_0":26
					},
					"indices":23,
					"material":0
				}
			]
		},
		{
			"name":"Plane.005",
			"primitives":[
				{
					"attributes":{
						"POSITION":27,
						"NORMAL":28,
						"TEXCOORD_0":29
					},
					"indices":30,
					"material":0
				}
			]
		},
		{
			"name":"Plane.009",
			"primitives":[
				{
					"attributes":{
						"POSITION":31,
						"NORMAL":32,
						"TEXCOORD_0":33
					},
					"indices":23,
					"material":0
				}
			]
		},
		{
			"name":"Plane.010",
			"primitives":[
				{
					"attributes":{
						"POSITION":34,
						"NORMAL":35,
						"TEXCOORD_0":36
					},
					"indices":23,
					"material":0
				}
			]
		},
		{
			"name":"Plane.011",
			"primitives":[
				{
					"attributes":{
						"POSITION":37,
						"NORMAL":38,
						"TEXCOORD_0":39
					},
					"indices":11,
					"material":0
				}
			]
		},
		{
			"name":"Plane.017",
			"primitives":[
				{
					"attributes":{
						"POSITION":40,
						"NORMAL":41,
						"TEXCOORD_0":42
					},
					"indices":43,
					"material":0
				}
			]
		},
		{
			"name":"Plane.018",
			"primitives":[
				{
					"attributes":{
						"POSITION":44,
						"NORMAL":45,
						"TEXCOORD_0":46
					},
					"indices":23,
					"material":0
				}
			]
		},
		{
			"name":"Plane.019",
			"primitives":[
				{
					"attributes":{
						"POSITION":47,
						"NORMAL":48,
						"TEXCOORD_0":49
					},
					"indices":23,
					"material":0
				}
			]
		},
		{
			"name":"Plane.020",
			"primitives":[
				{
					"attributes":{
						"POSITION":50,
						"NORMAL":51,
						"TEXCOORD_0":52
					},
					"indices":23,
					"material":0
				}
			]
		},
		{
			"name":"Plane.021",
			"primitives":[
				{
					"attributes":{
						"POSITION":53,
						"NORMAL":54,
						"TEXCOORD_0":55
					},
					"indices":23,
					"material":0
				}
			]
		},
		{
			"name":"Plane.023",
			"primitives":[
				{
					"attributes":{
						"POSITION":56,
						"NORMAL":57,
						"TEXCOORD_0":58
					},
					"indices":30,
					"material":0
				}
			]
		},
		{
			"name":"Plane.024",
			"primitives":[
				{
					"attributes":{
						"POSITION":59,
						"NORMAL":60,
						"TEXCOORD_0":61
					},
					"indices":62,
					"material":0
				}
			]
		},
		{
			"name":"Plane.025",
			"primitives":[
				{
					"attributes":{
						"POSITION":63,
						"NORMAL":64,
						"TEXCOORD_0":65
					},
					"indices":23,
					"material":0
				}
			]
		},
		{
			"name":"Plane.026",
			"primitives":[
				{
					"attributes":{
						"POSITION":66,
						"NORMAL":67,
						"TEXCOORD_0":68
					},
					"indices":23,
					"material":0
				}
			]
		},
		{
			"name":"Plane.027",
			"primitives":[
				{
					"attributes":{
						"POSITION":69,
						"NORMAL":70,
						"TEXCOORD_0":71
					},
					"indices":72,
					"material":0
				}
			]
		},
		{
			"name":"Plane.031",
			"primitives":[
				{
					"attributes":{
						"POSITION":73,
						"NORMAL":74,
						"TEXCOORD_0":75
					},
					"indices":23,
					"material":0
				}
			]
		},
		{
			"name":"Plane.032",
			"primitives":[
				{
					"attributes":{
						"POSITION":76,
						"NORMAL":77,
						"TEXCOORD_0":78
					},
					"indices":79,
					"material":0
				}
			]
		},
		{
			"name":"Plane.033",
			"primitives":[
				{
					"attributes":{
						"POSITION":80,
						"NORMAL":81,
						"TEXCOORD_0":82
					},
					"indices":23,
					"material":0
				}
			]
		},
		{
			"name":"Plane.034",
			"primitives":[
				{
					"attributes":{
						"POSITION":83,
						"NORMAL":84,
						"TEXCOORD_0":85
					},
					"indices":23,
					"material":0
				}
			]
		},
		{
			"name":"Plane.036",
			"primitives":[
				{
					"attributes":{
						"POSITION":86,
						"NORMAL":87,
						"TEXCOORD_0":88
					},
					"indices":30,
					"material":0
				}
			]
		},
		{
			"name":"Plane.038",
			"primitives":[
				{
					"attributes":{
						"POSITION":89,
						"NORMAL":90,
						"TEXCOORD_0":91
					},
					"indices":23,
					"material":0
				}
			]
		},
		{
			"name":"Plane.039",
			"primitives":[
				{
					"attributes":{
						"POSITION":92,
						"NORMAL":93,
						"TEXCOORD_0":94
					},
					"indices":23,
					"material":0
				}
			]
		},
		{
			"name":"Plane.044",
			"primitives":[
				{
					"attributes":{
						"POSITION":95,
						"NORMAL":96,
						"TEXCOORD_0":97
					},
					"indices":30,
					"material":0
				}
			]
		},
		{
			"name":"Plane.045",
			"primitives":[
				{
					"attributes":{
						"POSITION":98,
						"NORMAL":99,
						"TEXCOORD_0":100
					},
					"indices":72,
					"material":0
				}
			]
		},
		{
			"name":"Plane.046",
			"primitives":[
				{
					"attributes":{
						"POSITION":101,
						"NORMAL":102,
						"TEXCOORD_0":103
					},
					"indices":72,
					"material":0
				}
			]
		},
		{
			"name":"Plane.047",
			"primitives":[
				{
					"attributes":{
						"POSITION":104,
						"NORMAL":105,
						"TEXCOORD_0":106
					},
					"indices":107,
					"material":0
				}
			]
		},
		{
			"name":"Plane.048",
			"primitives":[
				{
					"attributes":{
						"POSITION":108,
						"NORMAL":109,
						"TEXCOORD_0":110
					},
					"indices":62
				}
			]
		},
		{
			"name":"Plane.049",
			"primitives":[
				{
					"attributes":{
						"POSITION":111,
						"NORMAL":112,
						"TEXCOORD_0":113
					},
					"indices":114,
					"material":0
				}
			]
		},
		{
			"name":"Plane.050",
			"primitives":[
				{
					"attributes":{
						"POSITION":115,
						"NORMAL":116,
						"TEXCOORD_0":117
					},
					"indices":114,
					"material":0
				}
			]
		},
		{
			"name":"Plane.051",
			"primitives":[
				{
					"attributes":{
						"POSITION":118,
						"NORMAL":119,
						"TEXCOORD_0":120
					},
					"indices":114,
					"material":0
				}
			]
		},
		{
			"name":"Plane.052",
			"primitives":[
				{
					"attributes":{
						"POSITION":121,
						"NORMAL":122,
						"TEXCOORD_0":123
					},
					"indices":62,
					"material":0
				}
			]
		},
		{
			"name":"Plane.053",
			"primitives":[
				{
					"attributes":{
						"POSITION":124,
						"NORMAL":125,
						"TEXCOORD_0":126
					},
					"indices":62,
					"material":0
				}
			]
		},
		{
			"name":"Plane.054",
			"primitives":[
				{
					"attributes":{
						"POSITION":127,
						"NORMAL":128,
						"TEXCOORD_0":129
					},
					"indices":130,
					"material":0
				}
			]
		},
		{
			"name":"Plane.056",
			"primitives":[
				{
					"attributes":{
						"POSITION":131,
						"NORMAL":132,
						"TEXCOORD_0":133
					},
					"indices":23,
					"material":0
				}
			]
		},
		{
			"name":"Plane.057",
			"primitives":[
				{
					"attributes":{
						"POSITION":134,
						"NORMAL":135,
						"TEXCOORD_0":136
					},
					"indices":23,
					"material":0
				}
			]
		},
		{
			"name":"Cube.002",
			"primitives":[
				{
					"attributes":{
						"POSITION":137,
						"NORMAL":138,
						"TEXCOORD_0":139
					},
					"indices":140
				}
			]
		},
		{
			"name":"Plane.003",
			"primitives":[
				{
					"attributes":{
						"POSITION":141,
						"NORMAL":142,
						"TEXCOORD_0":143
					},
					"indices":30,
					"material":0
				}
			]
		},
		{
			"name":"Plane.006",
			"primitives":[
				{
					"attributes":{
						"POSITION":144,
						"NORMAL":145,
						"TEXCOORD_0":146
					},
					"indices":23,
					"material":0
				}
			]
		},
		{
			"name":"Plane.007",
			"primitives":[
				{
					"attributes":{
						"POSITION":147,
						"NORMAL":148,
						"TEXCOORD_0":149
					},
					"indices":150,
					"material":0
				},
				{
					"attributes":{
						"POSITION":151,
						"NORMAL":152,
						"TEXCOORD_0":153
					},
					"indices":154,
					"material":1
				}
			]
		},
		{
			"name":"Plane.008",
			"primitives":[
				{
					"attributes":{
						"POSITION":155,
						"NORMAL":156,
						"TEXCOORD_0":157
					},
					"indices":150,
					"material":0
				},
				{
					"attributes":{
						"POSITION":158,
						"NORMAL":159,
						"TEXCOORD_0":160
					},
					"indices":154,
					"material":1
				}
			]
		},
		{
			"name":"Cube.004",
			"primitives":[
				{
					"attributes":{
						"POSITION":161,
						"NORMAL":162,
						"TEXCOORD_0":163
					},
					"indices":164,
					"material":0
				}
			]
		},
		{
			"name":"Cube.005",
			"primitives":[
				{
					"attributes":{
						"POSITION":165,
						"NORMAL":166,
						"TEXCOORD_0":167
					},
					"indices":168,
					"material":0
				}
			]
		},
		{
			"name":"B\u00e9zierCurve.002",
			"primitives":[
				{
					"attributes":{
						"POSITION":169,
						"NORMAL":170,
						"TEXCOORD_0":171
					},
					"indices":172,
					"material":0
				}
			]
		},
		{
			"name":"B\u00e9zierCurve.003",
			"primitives":[
				{
					"attributes":{
						"POSITION":173,
						"NORMAL":174,
						"TEXCOORD_0":175
					},
					"indices":176,
					"material":0
				}
			]
		},
		{
			"name":"Cube.006",
			"primitives":[
				{
					"attributes":{
						"POSITION":177,
						"NORMAL":178,
						"TEXCOORD_0":179
					},
					"indices":180
				}
			]
		},
		{
			"name":"Cube.007",
			"primitives":[
				{
					"attributes":{
						"POSITION":181,
						"NORMAL":182,
						"TEXCOORD_0":183
					},
					"indices":180
				}
			]
		},
		{
			"name":"Cube.008",
			"primitives":[
				{
					"attributes":{
						"POSITION":184,
						"NORMAL":185,
						"TEXCOORD_0":186
					},
					"indices":180
				}
			]
		},
		{
			"name":"Cube.009",
			"primitives":[
				{
					"attributes":{
						"POSITION":187,
						"NORMAL":188,
						"TEXCOORD_0":189
					},
					"indices":180
				}
			]
		},
		{
			"name":"B\u00e9zierCurve.004",
			"primitives":[
				{
					"attributes":{
						"POSITION":190,
						"NORMAL":191,
						"TEXCOORD_0":192
					},
					"indices":193,
					"material":0
				}
			]
		},
		{
			"name":"B\u00e9zierCurve.005",
			"primitives":[
				{
					"attributes":{
						"POSITION":194,
						"NORMAL":195,
						"TEXCOORD_0":196
					},
					"indices":197,
					"material":0
				}
			]
		},
		{
			"name":"B\u00e9zierCurve.006",
			"primitives":[
				{
					"attributes":{
						"POSITION":198,
						"NORMAL":199,
						"TEXCOORD_0":200
					},
					"indices":197,
					"material":0
				}
			]
		},
		{
			"name":"B\u00e9zierCurve.007",
			"primitives":[
				{
					"attributes":{
						"POSITION":201,
						"NORMAL":202,
						"TEXCOORD_0":203
					},
					"indices":204,
					"material":0
				}
			]
		},
		{
			"name":"B\u00e9zierCurve.008",
			"primitives":[
				{
					"attributes":{
						"POSITION":205,
						"NORMAL":206,
						"TEXCOORD_0":207
					},
					"indices":208,
					"material":0
				}
			]
		},
		{
			"name":"B\u00e9zierCurve.009",
			"primitives":[
				{
					"attributes":{
						"POSITION":209,
						"NORMAL":210,
						"TEXCOORD_0":211
					},
					"indices":208,
					"material":0
				}
			]
		},
		{
			"name":"B\u00e9zierCurve.010",
			"primitives":[
				{
					"attributes":{
						"POSITION":212,
						"NORMAL":213,
						"TEXCOORD_0":214
					},
					"indices":208,
					"material":0
				}
			]
		},
		{
			"name":"Plane.012",
			"primitives":[
				{
					"attributes":{
						"POSITION":215,
						"NORMAL":216,
						"TEXCOORD_0":217
					},
					"indices":218,
					"material":2
				}
			]
		}
	],
	"textures":[
		{
			"sampler":0,
			"source":0
		},
		{
			"sampler":0,
			"source":1
		}
	],
	"images":[
		{
			"mimeType":"image/png",
			"name":"yellow_black_stripes.png",
			"uri":"../../textures/walls/yellow_black_stripes.png"
		},
		{
			"mimeType":"image/png",
			"name":"wire_mesh_fence.png",
			"uri":"../../textures/walls/wire_mesh_fence.png"
		}
	],
	"accessors":[
		{
			"bufferView":0,
			"componentType":5126,
			"count":332,
			"max":[
				2,
				8,
				14.375082969665527
			],
			"min":[
				-133.54269409179688,
				-74.19999694824219,
				-15.014362335205078
			],
			"type":"VEC3"
		},
		{
			"bufferView":1,
			"componentType":5126,
			"count":332,
			"type":"VEC3"
		},
		{
			"bufferView":2,
			"componentType":5126,
			"count":332,
			"type":"VEC2"
		},
		{
			"bufferView":3,
			"componentType":5123,
			"count":792,
			"type":"SCALAR"
		},
		{
			"bufferView":4,
			"componentType":5126,
			"count":30,
			"max":[
				-21.292509078979492,
				0.3999999761581421,
				14.375082969665527
			],
			"min":[
				-50.640480041503906,
				-0.5,
				-14.375083923339844
			],
			"type":"VEC3"
		},
		{
			"bufferView":5,
			"componentType":5126,
			"count":30,
			"type":"VEC3"
		},
		{
			"bufferView":6,
			"componentType":5126,
			"count":30,
			"type":"VEC2"
		},
		{
			"bufferView":7,
			"componentType":5123,
			"count":54,
			"type":"SCALAR"
		},
		{
			"bufferView":8,
			"componentType":5126,
			"count":12,
			"max":[
				9,
				15,
				2.000000238418579
			],
			"min":[
				-11,
				-5,
				-1.0000007152557373
			],
			"type":"VEC3"
		},
		{
			"bufferView":9,
			"componentType":5126,
			"count":12,
			"type":"VEC3"
		},
		{
			"bufferView":10,
			"componentType":5126,
			"count":12,
			"type":"VEC2"
		},
		{
			"bufferView":11,
			"componentType":5123,
			"count":18,
			"type":"SCALAR"
		},
		{
			"bufferView":12,
			"componentType":5126,
			"count":28,
			"max":[
				2,
				0.0874805822968483,
				2
			],
			"min":[
				-1,
				-6.859029293060303,
				-1
			],
			"type":"VEC3"
		},
		{
			"bufferView":13,
			"componentType":5126,
			"count":28,
			"type":"VEC3"
		},
		{
			"bufferView":14,
			"componentType":5126,
			"count":28,
			"type":"VEC2"
		},
		{
			"bufferView":15,
			"componentType":5123,
			"count":54,
			"type":"SCALAR"
		},
		{
			"bufferView":16,
			"componentType":5126,
			"count":24,
			"max":[
				1.881553292274475,
				0.08748063445091248,
				1.5838079452514648
			],
			"min":[
				-0.8749027848243713,
				-8.750317448402711e-08,
				-0.5838079452514648
			],
			"type":"VEC3"
		},
		{
			"bufferView":17,
			"componentType":5126,
			"count":24,
			"type":"VEC3"
		},
		{
			"bufferView":18,
			"componentType":5126,
			"count":24,
			"type":"VEC2"
		},
		{
			"bufferView":19,
			"componentType":5123,
			"count":48,
			"type":"SCALAR"
		},
		{
			"bufferView":20,
			"componentType":5126,
			"count":4,
			"max":[
				2,
				0,
				2
			],
			"min":[
				-1,
				-7.549790126404332e-08,
				-8
			],
			"type":"VEC3"
		},
		{
			"bufferView":21,
			"componentType":5126,
			"count":4,
			"type":"VEC3"
		},
		{
			"bufferView":22,
			"componentType":5126,
			"count":4,
			"type":"VEC2"
		},
		{
			"bufferView":23,
			"componentType":5123,
			"count":6,
			"type":"SCALAR"
		},
		{
			"bufferView":24,
			"componentType":5126,
			"count":4,
			"max":[
				2,
				0,
				7
			],
			"min":[
				-1,
				-7.549790126404332e-08,
				0
			],
			"type":"VEC3"
		},
		{
			"bufferView":25,
			"componentType":5126,
			"count":4,
			"type":"VEC3"
		},
		{
			"bufferView":26,
			"componentType":5126,
			"count":4,
			"type":"VEC2"
		},
		{
			"bufferView":27,
			"componentType":5126,
			"count":16,
			"max":[
				12,
				15,
				3
			],
			"min":[
				-8,
				-5,
				-1.0000007152557373
			],
			"type":"VEC3"
		},
		{
			"bufferView":28,
			"componentType":5126,
			"count":16,
			"type":"VEC3"
		},
		{
			"bufferView":29,
			"componentType":5126,
			"count":16,
			"type":"VEC2"
		},
		{
			"bufferView":30,
			"componentType":5123,
			"count":24,
			"type":"SCALAR"
		},
		{
			"bufferView":31,
			"componentType":5126,
			"count":4,
			"max":[
				2,
				4.371138828673793e-08,
				6
			],
			"min":[
				-1.0000001192092896,
				-7.549790126404332e-08,
				0
			],
			"type":"VEC3"
		},
		{
			"bufferView":32,
			"componentType":5126,
			"count":4,
			"type":"VEC3"
		},
		{
			"bufferView":33,
			"componentType":5126,
			"count":4,
			"type":"VEC2"
		},
		{
			"bufferView":34,
			"componentType":5126,
			"count":4,
			"max":[
				1.9999998807907104,
				2.18556948539117e-07,
				6
			],
			"min":[
				-1.0000003576278687,
				-3.178651297730539e-08,
				-5
			],
			"type":"VEC3"
		},
		{
			"bufferView":35,
			"componentType":5126,
			"count":4,
			"type":"VEC3"
		},
		{
			"bufferView":36,
			"componentType":5126,
			"count":4,
			"type":"VEC2"
		},
		{
			"bufferView":37,
			"componentType":5126,
			"count":12,
			"max":[
				10,
				10,
				2.000000476837158
			],
			"min":[
				-10,
				-10,
				-1.0000004768371582
			],
			"type":"VEC3"
		},
		{
			"bufferView":38,
			"componentType":5126,
			"count":12,
			"type":"VEC3"
		},
		{
			"bufferView":39,
			"componentType":5126,
			"count":12,
			"type":"VEC2"
		},
		{
			"bufferView":40,
			"componentType":5126,
			"count":8,
			"max":[
				12,
				15,
				2.000000238418579
			],
			"min":[
				-8,
				-5,
				-1.0000007152557373
			],
			"type":"VEC3"
		},
		{
			"bufferView":41,
			"componentType":5126,
			"count":8,
			"type":"VEC3"
		},
		{
			"bufferView":42,
			"componentType":5126,
			"count":8,
			"type":"VEC2"
		},
		{
			"bufferView":43,
			"componentType":5123,
			"count":12,
			"type":"SCALAR"
		},
		{
			"bufferView":44,
			"componentType":5126,
			"count":4,
			"max":[
				1.9999998807907104,
				2.18556948539117e-07,
				8
			],
			"min":[
				-1.0000003576278687,
				-1.335151978310023e-06,
				-5
			],
			"type":"VEC3"
		},
		{
			"bufferView":45,
			"componentType":5126,
			"count":4,
			"type":"VEC3"
		},
		{
			"bufferView":46,
			"componentType":5126,
			"count":4,
			"type":"VEC2"
		},
		{
			"bufferView":47,
			"componentType":5126,
			"count":4,
			"max":[
				1.9999998807907104,
				2.18556948539117e-07,
				8
			],
			"min":[
				-1.0000003576278687,
				-1.335151978310023e-06,
				-5
			],
			"type":"VEC3"
		},
		{
			"bufferView":48,
			"componentType":5126,
			"count":4,
			"type":"VEC3"
		},
		{
			"bufferView":49,
			"componentType":5126,
			"count":4,
			"type":"VEC2"
		},
		{
			"bufferView":50,
			"componentType":5126,
			"count":4,
			"max":[
				1.9999998807907104,
				-1.2596541409948259e-06,
				8
			],
			"min":[
				-1.0000003576278687,
				-8.654657904116903e-06,
				4
			],
			"type":"VEC3"
		},
		{
			"bufferView":51,
			"componentType":5126,
			"count":4,
			"type":"VEC3"
		},
		{
			"bufferView":52,
			"componentType":5126,
			"count":4,
			"type":"VEC2"
		},
		{
			"bufferView":53,
			"componentType":5126,
			"count":4,
			"max":[
				1.9999998807907104,
				-1.2596541409948259e-06,
				8
			],
			"min":[
				-1.0000003576278687,
				-5.722085916204378e-06,
				4
			],
			"type":"VEC3"
		},
		{
			"bufferView":54,
			"componentType":5126,
			"count":4,
			"type":"VEC3"
		},
		{
			"bufferView":55,
			"componentType":5126,
			"count":4,
			"type":"VEC2"
		},
		{
			"bufferView":56,
			"componentType":5126,
			"count":16,
			"max":[
				12,
				15,
				4
			],
			"min":[
				-8,
				-5,
				-1.0000007152557373
			],
			"type":"VEC3"
		},
		{
			"bufferView":57,
			"componentType":5126,
			"count":16,
			"type":"VEC3"
		},
		{
			"bufferView":58,
			"componentType":5126,
			"count":16,
			"type":"VEC2"
		},
		{
			"bufferView":59,
			"componentType":5126,
			"count":4,
			"max":[
				10,
				10,
				3.999999523162842
			],
			"min":[
				-10,
				10,
				-1.0000004768371582
			],
			"type":"VEC3"
		},
		{
			"bufferView":60,
			"componentType":5126,
			"count":4,
			"type":"VEC3"
		},
		{
			"bufferView":61,
			"componentType":5126,
			"count":4,
			"type":"VEC2"
		},
		{
			"bufferView":62,
			"componentType":5123,
			"count":6,
			"type":"SCALAR"
		},
		{
			"bufferView":63,
			"componentType":5126,
			"count":4,
			"max":[
				4,
				-1.2596541409948259e-06,
				8
			],
			"min":[
				-1.0000008344650269,
				-6.6161351242044475e-06,
				2
			],
			"type":"VEC3"
		},
		{
			"bufferView":64,
			"componentType":5126,
			"count":4,
			"type":"VEC3"
		},
		{
			"bufferView":65,
			"componentType":5126,
			"count":4,
			"type":"VEC2"
		},
		{
			"bufferView":66,
			"componentType":5126,
			"count":4,
			"max":[
				3.999999761581421,
				-5.122050879435847e-06,
				12
			],
			"min":[
				-1.0000008344650269,
				-6.6161351242044475e-06,
				2
			],
			"type":"VEC3"
		},
		{
			"bufferView":67,
			"componentType":5126,
			"count":4,
			"type":"VEC3"
		},
		{
			"bufferView":68,
			"componentType":5126,
			"count":4,
			"type":"VEC2"
		},
		{
			"bufferView":69,
			"componentType":5126,
			"count":82,
			"max":[
				3.999999761581421,
				0.058130327612161636,
				12
			],
			"min":[
				-1.000001311302185,
				-18.1756649017334,
				8
			],
			"type":"VEC3"
		},
		{
			"bufferView":70,
			"componentType":5126,
			"count":82,
			"type":"VEC3"
		},
		{
			"bufferView":71,
			"componentType":5126,
			"count":82,
			"type":"VEC2"
		},
		{
			"bufferView":72,
			"componentType":5123,
			"count":180,
			"type":"SCALAR"
		},
		{
			"bufferView":73,
			"componentType":5126,
			"count":4,
			"max":[
				4,
				-6.756123127615865e-08,
				7
			],
			"min":[
				0.9999991655349731,
				-6.6161351242044475e-06,
				2
			],
			"type":"VEC3"
		},
		{
			"bufferView":74,
			"componentType":5126,
			"count":4,
			"type":"VEC3"
		},
		{
			"bufferView":75,
			"componentType":5126,
			"count":4,
			"type":"VEC2"
		},
		{
			"bufferView":76,
			"componentType":5126,
			"count":8,
			"max":[
				4,
				12.000000953674316,
				7
			],
			"min":[
				-1.0000017881393433,
				-2.940549848062801e-07,
				-5
			],
			"type":"VEC3"
		},
		{
			"bufferView":77,
			"componentType":5126,
			"count":8,
			"type":"VEC3"
		},
		{
			"bufferView":78,
			"componentType":5126,
			"count":8,
			"type":"VEC2"
		},
		{
			"bufferView":79,
			"componentType":5123,
			"count":12,
			"type":"SCALAR"
		},
		{
			"bufferView":80,
			"componentType":5126,
			"count":4,
			"max":[
				4,
				-2.185570338042453e-07,
				7
			],
			"min":[
				-1.0000008344650269,
				-6.6161351242044475e-06,
				2
			],
			"type":"VEC3"
		},
		{
			"bufferView":81,
			"componentType":5126,
			"count":4,
			"type":"VEC3"
		},
		{
			"bufferView":82,
			"componentType":5126,
			"count":4,
			"type":"VEC2"
		},
		{
			"bufferView":83,
			"componentType":5126,
			"count":4,
			"max":[
				1,
				-2.185570338042453e-07,
				7
			],
			"min":[
				-1.0000007152557373,
				-8.610906661488116e-06,
				4
			],
			"type":"VEC3"
		},
		{
			"bufferView":84,
			"componentType":5126,
			"count":4,
			"type":"VEC3"
		},
		{
			"bufferView":85,
			"componentType":5126,
			"count":4,
			"type":"VEC2"
		},
		{
			"bufferView":86,
			"componentType":5126,
			"count":16,
			"max":[
				12,
				15,
				1.000000238418579
			],
			"min":[
				-8,
				-5,
				-1.0000007152557373
			],
			"type":"VEC3"
		},
		{
			"bufferView":87,
			"componentType":5126,
			"count":16,
			"type":"VEC3"
		},
		{
			"bufferView":88,
			"componentType":5126,
			"count":16,
			"type":"VEC2"
		},
		{
			"bufferView":89,
			"componentType":5126,
			"count":4,
			"max":[
				1.9999998807907104,
				4.780335984833073e-06,
				8
			],
			"min":[
				-1.0000003576278687,
				-1.335151978310023e-06,
				-12
			],
			"type":"VEC3"
		},
		{
			"bufferView":90,
			"componentType":5126,
			"count":4,
			"type":"VEC3"
		},
		{
			"bufferView":91,
			"componentType":5126,
			"count":4,
			"type":"VEC2"
		},
		{
			"bufferView":92,
			"componentType":5126,
			"count":4,
			"max":[
				1.9999998807907104,
				2.18556948539117e-07,
				8
			],
			"min":[
				-1.0000003576278687,
				-1.335151978310023e-06,
				-5
			],
			"type":"VEC3"
		},
		{
			"bufferView":93,
			"componentType":5126,
			"count":4,
			"type":"VEC3"
		},
		{
			"bufferView":94,
			"componentType":5126,
			"count":4,
			"type":"VEC2"
		},
		{
			"bufferView":95,
			"componentType":5126,
			"count":16,
			"max":[
				12,
				15,
				4
			],
			"min":[
				-8,
				-5,
				-1.0000007152557373
			],
			"type":"VEC3"
		},
		{
			"bufferView":96,
			"componentType":5126,
			"count":16,
			"type":"VEC3"
		},
		{
			"bufferView":97,
			"componentType":5126,
			"count":16,
			"type":"VEC2"
		},
		{
			"bufferView":98,
			"componentType":5126,
			"count":82,
			"max":[
				3.999999761581421,
				0.058130327612161636,
				12
			],
			"min":[
				-1.000001311302185,
				-18.1756649017334,
				8
			],
			"type":"VEC3"
		},
		{
			"bufferView":99,
			"componentType":5126,
			"count":82,
			"type":"VEC3"
		},
		{
			"bufferView":100,
			"componentType":5126,
			"count":82,
			"type":"VEC2"
		},
		{
			"bufferView":101,
			"componentType":5126,
			"count":82,
			"max":[
				3.999999761581421,
				0.058130327612161636,
				12
			],
			"min":[
				-1.000001311302185,
				-18.1756649017334,
				8
			],
			"type":"VEC3"
		},
		{
			"bufferView":102,
			"componentType":5126,
			"count":82,
			"type":"VEC3"
		},
		{
			"bufferView":103,
			"componentType":5126,
			"count":82,
			"type":"VEC2"
		},
		{
			"bufferView":104,
			"componentType":5126,
			"count":8,
			"max":[
				3.9999990463256836,
				4.999993324279785,
				22
			],
			"min":[
				-1.0000011920928955,
				-1.4853540051262826e-05,
				2
			],
			"type":"VEC3"
		},
		{
			"bufferView":105,
			"componentType":5126,
			"count":8,
			"type":"VEC3"
		},
		{
			"bufferView":106,
			"componentType":5126,
			"count":8,
			"type":"VEC2"
		},
		{
			"bufferView":107,
			"componentType":5123,
			"count":12,
			"type":"SCALAR"
		},
		{
			"bufferView":108,
			"componentType":5126,
			"count":4,
			"max":[
				1.9999995231628418,
				4.000003814697266,
				4.00000524520874
			],
			"min":[
				-1.0000004768371582,
				3.83061023967457e-06,
				4
			],
			"type":"VEC3"
		},
		{
			"bufferView":109,
			"componentType":5126,
			"count":4,
			"type":"VEC3"
		},
		{
			"bufferView":110,
			"componentType":5126,
			"count":4,
			"type":"VEC2"
		},
		{
			"bufferView":111,
			"componentType":5126,
			"count":4,
			"max":[
				1.9999996423721313,
				3.906107849616092e-06,
				4
			],
			"min":[
				-1.0000004768371582,
				1.4305905438050104e-07,
				-5
			],
			"type":"VEC3"
		},
		{
			"bufferView":112,
			"componentType":5126,
			"count":4,
			"type":"VEC3"
		},
		{
			"bufferView":113,
			"componentType":5126,
			"count":4,
			"type":"VEC2"
		},
		{
			"bufferView":114,
			"componentType":5123,
			"count":6,
			"type":"SCALAR"
		},
		{
			"bufferView":115,
			"componentType":5126,
			"count":4,
			"max":[
				2.000000238418579,
				3.906107849616092e-06,
				4
			],
			"min":[
				-1.0000004768371582,
				-8.897024599718861e-06,
				2
			],
			"type":"VEC3"
		},
		{
			"bufferView":116,
			"componentType":5126,
			"count":4,
			"type":"VEC3"
		},
		{
			"bufferView":117,
			"componentType":5126,
			"count":4,
			"type":"VEC2"
		},
		{
			"bufferView":118,
			"componentType":5126,
			"count":4,
			"max":[
				2.000000238418579,
				3.906107849616092e-06,
				4
			],
			"min":[
				-1.0000004768371582,
				-7.605583959957585e-06,
				1
			],
			"type":"VEC3"
		},
		{
			"bufferView":119,
			"componentType":5126,
			"count":4,
			"type":"VEC3"
		},
		{
			"bufferView":120,
			"componentType":5126,
			"count":4,
			"type":"VEC2"
		},
		{
			"bufferView":121,
			"componentType":5126,
			"count":4,
			"max":[
				3.9999990463256836,
				9.999985694885254,
				22.000009536743164
			],
			"min":[
				-1.0000011920928955,
				-1.4853540051262826e-05,
				22
			],
			"type":"VEC3"
		},
		{
			"bufferView":122,
			"componentType":5126,
			"count":4,
			"type":"VEC3"
		},
		{
			"bufferView":123,
			"componentType":5126,
			"count":4,
			"type":"VEC2"
		},
		{
			"bufferView":124,
			"componentType":5126,
			"count":4,
			"max":[
				3.9999990463256836,
				9.999985694885254,
				22.000009536743164
			],
			"min":[
				-1.0000011920928955,
				3.9999852180480957,
				22.000003814697266
			],
			"type":"VEC3"
		},
		{
			"bufferView":125,
			"componentType":5126,
			"count":4,
			"type":"VEC3"
		},
		{
			"bufferView":126,
			"componentType":5126,
			"count":4,
			"type":"VEC2"
		},
		{
			"bufferView":127,
			"componentType":5126,
			"count":8,
			"max":[
				3.9999990463256836,
				10.999985694885254,
				22.00001335144043
			],
			"min":[
				-1.0000011920928955,
				-1.4853540051262826e-05,
				2
			],
			"type":"VEC3"
		},
		{
			"bufferView":128,
			"componentType":5126,
			"count":8,
			"type":"VEC3"
		},
		{
			"bufferView":129,
			"componentType":5126,
			"count":8,
			"type":"VEC2"
		},
		{
			"bufferView":130,
			"componentType":5123,
			"count":12,
			"type":"SCALAR"
		},
		{
			"bufferView":131,
			"componentType":5126,
			"count":4,
			"max":[
				1.9999998807907104,
				2.18556948539117e-07,
				8
			],
			"min":[
				-1.0000003576278687,
				-1.335151978310023e-06,
				-5
			],
			"type":"VEC3"
		},
		{
			"bufferView":132,
			"componentType":5126,
			"count":4,
			"type":"VEC3"
		},
		{
			"bufferView":133,
			"componentType":5126,
			"count":4,
			"type":"VEC2"
		},
		{
			"bufferView":134,
			"componentType":5126,
			"count":4,
			"max":[
				1.9999998807907104,
				-1.2596541409948259e-06,
				8
			],
			"min":[
				-1.000001072883606,
				-1.4412477867153939e-05,
				4
			],
			"type":"VEC3"
		},
		{
			"bufferView":135,
			"componentType":5126,
			"count":4,
			"type":"VEC3"
		},
		{
			"bufferView":136,
			"componentType":5126,
			"count":4,
			"type":"VEC2"
		},
		{
			"bufferView":137,
			"componentType":5126,
			"count":504,
			"max":[
				6.700000762939453,
				1,
				1
			],
			"min":[
				-1.2999999523162842,
				-4.25,
				-1
			],
			"type":"VEC3"
		},
		{
			"bufferView":138,
			"componentType":5126,
			"count":504,
			"type":"VEC3"
		},
		{
			"bufferView":139,
			"componentType":5126,
			"count":504,
			"type":"VEC2"
		},
		{
			"bufferView":140,
			"componentType":5123,
			"count":756,
			"type":"SCALAR"
		},
		{
			"bufferView":141,
			"componentType":5126,
			"count":16,
			"max":[
				12,
				15,
				3
			],
			"min":[
				-8,
				-5,
				-1.0000007152557373
			],
			"type":"VEC3"
		},
		{
			"bufferView":142,
			"componentType":5126,
			"count":16,
			"type":"VEC3"
		},
		{
			"bufferView":143,
			"componentType":5126,
			"count":16,
			"type":"VEC2"
		},
		{
			"bufferView":144,
			"componentType":5126,
			"count":4,
			"max":[
				4,
				7.93666998788467e-09,
				7
			],
			"min":[
				1.9999991655349731,
				-3.4928439163195435e-06,
				-1
			],
			"type":"VEC3"
		},
		{
			"bufferView":145,
			"componentType":5126,
			"count":4,
			"type":"VEC3"
		},
		{
			"bufferView":146,
			"componentType":5126,
			"count":4,
			"type":"VEC2"
		},
		{
			"bufferView":147,
			"componentType":5126,
			"count":44,
			"max":[
				2,
				0.08748063445091248,
				2
			],
			"min":[
				-1,
				-6.859029293060303,
				-1
			],
			"type":"VEC3"
		},
		{
			"bufferView":148,
			"componentType":5126,
			"count":44,
			"type":"VEC3"
		},
		{
			"bufferView":149,
			"componentType":5126,
			"count":44,
			"type":"VEC2"
		},
		{
			"bufferView":150,
			"componentType":5123,
			"count":78,
			"type":"SCALAR"
		},
		{
			"bufferView":151,
			"componentType":5126,
			"count":8,
			"max":[
				1.881553292274475,
				0.08748063445091248,
				1.5838079452514648
			],
			"min":[
				-0.8749027848243713,
				0.08748053014278412,
				-0.5838079452514648
			],
			"type":"VEC3"
		},
		{
			"bufferView":152,
			"componentType":5126,
			"count":8,
			"type":"VEC3"
		},
		{
			"bufferView":153,
			"componentType":5126,
			"count":8,
			"type":"VEC2"
		},
		{
			"bufferView":154,
			"componentType":5123,
			"count":24,
			"type":"SCALAR"
		},
		{
			"bufferView":155,
			"componentType":5126,
			"count":44,
			"max":[
				2,
				0.08748063445091248,
				2
			],
			"min":[
				-1,
				-6.859029293060303,
				-1
			],
			"type":"VEC3"
		},
		{
			"bufferView":156,
			"componentType":5126,
			"count":44,
			"type":"VEC3"
		},
		{
			"bufferView":157,
			"componentType":5126,
			"count":44,
			"type":"VEC2"
		},
		{
			"bufferView":158,
			"componentType":5126,
			"count":8,
			"max":[
				1.881553292274475,
				0.08748063445091248,
				1.5838079452514648
			],
			"min":[
				-0.8749027848243713,
				0.08748053014278412,
				-0.5838079452514648
			],
			"type":"VEC3"
		},
		{
			"bufferView":159,
			"componentType":5126,
			"count":8,
			"type":"VEC3"
		},
		{
			"bufferView":160,
			"componentType":5126,
			"count":8,
			"type":"VEC2"
		},
		{
			"bufferView":161,
			"componentType":5126,
			"count":144,
			"max":[
				0.2448139190673828,
				0.35045334696769714,
				-0.6175854802131653
			],
			"min":[
				-0.2448139190673828,
				-5.411520004272461,
				-0.7680021524429321
			],
			"type":"VEC3"
		},
		{
			"bufferView":162,
			"componentType":5126,
			"count":144,
			"type":"VEC3"
		},
		{
			"bufferView":163,
			"componentType":5126,
			"count":144,
			"type":"VEC2"
		},
		{
			"bufferView":164,
			"componentType":5123,
			"count":408,
			"type":"SCALAR"
		},
		{
			"bufferView":165,
			"componentType":5126,
			"count":14,
			"max":[
				1.1514413356781006,
				-0.050758808851242065,
				-0.6175854802131653
			],
			"min":[
				-0.2448139190673828,
				-0.35045334696769714,
				-0.7680021524429321
			],
			"type":"VEC3"
		},
		{
			"bufferView":166,
			"componentType":5126,
			"count":14,
			"type":"VEC3"
		},
		{
			"bufferView":167,
			"componentType":5126,
			"count":14,
			"type":"VEC2"
		},
		{
			"bufferView":168,
			"componentType":5123,
			"count":36,
			"type":"SCALAR"
		},
		{
			"bufferView":169,
			"componentType":5126,
			"count":153,
			"max":[
				-0.02659851312637329,
				0.08000020682811737,
				1.8628708124160767
			],
			"min":[
				-0.7865995168685913,
				-0.08000051230192184,
				-10.118721961975098
			],
			"type":"VEC3"
		},
		{
			"bufferView":170,
			"componentType":5126,
			"count":153,
			"type":"VEC3"
		},
		{
			"bufferView":171,
			"componentType":5126,
			"count":153,
			"type":"VEC2"
		},
		{
			"bufferView":172,
			"componentType":5123,
			"count":768,
			"type":"SCALAR"
		},
		{
			"bufferView":173,
			"componentType":5126,
			"count":144,
			"max":[
				0.14340150356292725,
				0.2869716286659241,
				2.0310444831848145
			],
			"min":[
				-3.6822562217712402,
				-0.3227175772190094,
				-10.118721961975098
			],
			"type":"VEC3"
		},
		{
			"bufferView":174,
			"componentType":5126,
			"count":144,
			"type":"VEC3"
		},
		{
			"bufferView":175,
			"componentType":5126,
			"count":144,
			"type":"VEC2"
		},
		{
			"bufferView":176,
			"componentType":5123,
			"count":720,
			"type":"SCALAR"
		},
		{
			"bufferView":177,
			"componentType":5126,
			"count":24,
			"max":[
				0.30000001192092896,
				45.000003814697266,
				0.30000001192092896
			],
			"min":[
				-0.30000001192092896,
				-45.000003814697266,
				-0.30000001192092896
			],
			"type":"VEC3"
		},
		{
			"bufferView":178,
			"componentType":5126,
			"count":24,
			"type":"VEC3"
		},
		{
			"bufferView":179,
			"componentType":5126,
			"count":24,
			"type":"VEC2"
		},
		{
			"bufferView":180,
			"componentType":5123,
			"count":36,
			"type":"SCALAR"
		},
		{
			"bufferView":181,
			"componentType":5126,
			"count":24,
			"max":[
				0.30000001192092896,
				45.000003814697266,
				0.30000001192092896
			],
			"min":[
				-0.30000001192092896,
				-45.000003814697266,
				-0.30000001192092896
			],
			"type":"VEC3"
		},
		{
			"bufferView":182,
			"componentType":5126,
			"count":24,
			"type":"VEC3"
		},
		{
			"bufferView":183,
			"componentType":5126,
			"count":24,
			"type":"VEC2"
		},
		{
			"bufferView":184,
			"componentType":5126,
			"count":24,
			"max":[
				0.30000001192092896,
				45.000003814697266,
				0.30000001192092896
			],
			"min":[
				-0.30000001192092896,
				-45.000003814697266,
				-0.30000001192092896
			],
			"type":"VEC3"
		},
		{
			"bufferView":185,
			"componentType":5126,
			"count":24,
			"type":"VEC3"
		},
		{
			"bufferView":186,
			"componentType":5126,
			"count":24,
			"type":"VEC2"
		},
		{
			"bufferView":187,
			"componentType":5126,
			"count":24,
			"max":[
				0.30000001192092896,
				45.000003814697266,
				0.30000001192092896
			],
			"min":[
				-0.30000001192092896,
				-45.000003814697266,
				-0.30000001192092896
			],
			"type":"VEC3"
		},
		{
			"bufferView":188,
			"componentType":5126,
			"count":24,
			"type":"VEC3"
		},
		{
			"bufferView":189,
			"componentType":5126,
			"count":24,
			"type":"VEC2"
		},
		{
			"bufferView":190,
			"componentType":5126,
			"count":387,
			"max":[
				0.5734014511108398,
				0.9054556488990784,
				-0.3247912526130676
			],
			"min":[
				-7.303225040435791,
				-10.461376190185547,
				-9.8168306350708
			],
			"type":"VEC3"
		},
		{
			"bufferView":191,
			"componentType":5126,
			"count":387,
			"type":"VEC3"
		},
		{
			"bufferView":192,
			"componentType":5126,
			"count":387,
			"type":"VEC2"
		},
		{
			"bufferView":193,
			"componentType":5123,
			"count":2016,
			"type":"SCALAR"
		},
		{
			"bufferView":194,
			"componentType":5126,
			"count":117,
			"max":[
				0.8734015226364136,
				0.9800000786781311,
				-1.9777145385742188
			],
			"min":[
				-2.010544776916504,
				-2.1902120113372803,
				-9.402905464172363
			],
			"type":"VEC3"
		},
		{
			"bufferView":195,
			"componentType":5126,
			"count":117,
			"type":"VEC3"
		},
		{
			"bufferView":196,
			"componentType":5126,
			"count":117,
			"type":"VEC2"
		},
		{
			"bufferView":197,
			"componentType":5123,
			"count":576,
			"type":"SCALAR"
		},
		{
			"bufferView":198,
			"componentType":5126,
			"count":117,
			"max":[
				0.8734015226364136,
				0.9800000786781311,
				-1.9777145385742188
			],
			"min":[
				-2.010544776916504,
				-2.1902120113372803,
				-9.402905464172363
			],
			"type":"VEC3"
		},
		{
			"bufferView":199,
			"componentType":5126,
			"count":117,
			"type":"VEC3"
		},
		{
			"bufferView":200,
			"componentType":5126,
			"count":117,
			"type":"VEC2"
		},
		{
			"bufferView":201,
			"componentType":5126,
			"count":279,
			"max":[
				4.991697311401367,
				7.384676933288574,
				-4.448888301849365
			],
			"min":[
				-1.6181341409683228,
				-1.9287662506103516,
				-10.694380760192871
			],
			"type":"VEC3"
		},
		{
			"bufferView":202,
			"componentType":5126,
			"count":279,
			"type":"VEC3"
		},
		{
			"bufferView":203,
			"componentType":5126,
			"count":279,
			"type":"VEC2"
		},
		{
			"bufferView":204,
			"componentType":5123,
			"count":1440,
			"type":"SCALAR"
		},
		{
			"bufferView":205,
			"componentType":5126,
			"count":171,
			"max":[
				11.755685806274414,
				7.624781131744385,
				0.1080736517906189
			],
			"min":[
				-11.353751182556152,
				-8.024161338806152,
				-8.911497116088867
			],
			"type":"VEC3"
		},
		{
			"bufferView":206,
			"componentType":5126,
			"count":171,
			"type":"VEC3"
		},
		{
			"bufferView":207,
			"componentType":5126,
			"count":171,
			"type":"VEC2"
		},
		{
			"bufferView":208,
			"componentType":5123,
			"count":864,
			"type":"SCALAR"
		},
		{
			"bufferView":209,
			"componentType":5126,
			"count":171,
			"max":[
				11.755685806274414,
				7.624781131744385,
				0.1080736517906189
			],
			"min":[
				-11.353751182556152,
				-8.024161338806152,
				-8.911497116088867
			],
			"type":"VEC3"
		},
		{
			"bufferView":210,
			"componentType":5126,
			"count":171,
			"type":"VEC3"
		},
		{
			"bufferView":211,
			"componentType":5126,
			"count":171,
			"type":"VEC2"
		},
		{
			"bufferView":212,
			"componentType":5126,
			"count":171,
			"max":[
				11.755685806274414,
				7.624781131744385,
				0.1080736517906189
			],
			"min":[
				-11.353751182556152,
				-8.024161338806152,
				-8.911497116088867
			],
			"type":"VEC3"
		},
		{
			"bufferView":213,
			"componentType":5126,
			"count":171,
			"type":"VEC3"
		},
		{
			"bufferView":214,
			"componentType":5126,
			"count":171,
			"type":"VEC2"
		},
		{
			"bufferView":215,
			"componentType":5126,
			"count":4,
			"max":[
				4.269448280334473,
				1.641955407194473e-07,
				16.60825538635254
			],
			"min":[
				-6.444283962249756,
				0,
				-15.74671745300293
			],
			"type":"VEC3"
		},
		{
			"bufferView":216,
			"componentType":5126,
			"count":4,
			"type":"VEC3"
		},
		{
			"bufferView":217,
			"componentType":5126,
			"count":4,
			"type":"VEC2"
		},
		{
			"bufferView":218,
			"componentType":5123,
			"count":6,
			"type":"SCALAR"
		}
	],
	"bufferViews":[
		{
			"buffer":0,
			"byteLength":3984,
			"byteOffset":0,
			"target":34962
		},
		{
			"buffer":0,
			"byteLength":3984,
			"byteOffset":3984,
			"target":34962
		},
		{
			"buffer":0,
			"byteLength":2656,
			"byteOffset":7968,
			"target":34962
		},
		{
			"buffer":0,
			"byteLength":1584,
			"byteOffset":10624,
			"target":34963
		},
		{
			"buffer":0,
			"byteLength":360,
			"byteOffset":12208,
			"target":34962
		},
		{
			"buffer":0,
			"byteLength":360,
			"byteOffset":12568,
			"target":34962
		},
		{
			"buffer":0,
			"byteLength":240,
			"byteOffset":12928,
			"target":34962
		},
		{
			"buffer":0,
			"byteLength":108,
			"byteOffset":13168,
			"target":34963
		},
		{
			"buffer":0,
			"byteLength":144,
			"byteOffset":13276,
			"target":34962
		},
		{
			"buffer":0,
			"byteLength":144,
			"byteOffset":13420,
			"target":34962
		},
		{
			"buffer":0,
			"byteLength":96,
			"byteOffset":13564,
			"target":34962
		},
		{
			"buffer":0,
			"byteLength":36,
			"byteOffset":13660,
			"target":34963
		},
		{
			"buffer":0,
			"byteLength":336,
			"byteOffset":13696,
			"target":34962
		},
		{
			"buffer":0,
			"byteLength":336,
			"byteOffset":14032,
			"target":34962
		},
		{
			"buffer":0,
			"byteLength":224,
			"byteOffset":14368,
			"target":34962
		},
		{
			"buffer":0,
			"byteLength":108,
			"byteOffset":14592,
			"target":34963
		},
		{
			"buffer":0,
			"byteLength":288,
			"byteOffset":14700,
			"target":34962
		},
		{
			"buffer":0,
			"byteLength":288,
			"byteOffset":14988,
			"target":34962
		},
		{
			"buffer":0,
			"byteLength":192,
			"byteOffset":15276,
			"target":34962
		},
		{
			"buffer":0,
			"byteLength":96,
			"byteOffset":15468,
			"target":34963
		},
		{
			"buffer":0,
			"byteLength":48,
			"byteOffset":15564,
			"target":34962
		},
		{
			"buffer":0,
			"byteLength":48,
			"byteOffset":15612,
			"target":34962
		},
		{
			"buffer":0,
			"byteLength":32,
			"byteOffset":15660,
			"target":34962
		},
		{
			"buffer":0,
			"byteLength":12,
			"byteOffset":15692,
			"target":34963
		},
		{
			"buffer":0,
			"byteLength":48,
			"byteOffset":15704,
			"target":34962
		},
		{
			"buffer":0,
			"byteLength":48,
			"byteOffset":15752,
			"target":34962
		},
		{
			"buffer":0,
			"byteLength":32,
			"byteOffset":15800,
			"target":34962
		},
		{
			"buffer":0,
			"byteLength":192,
			"byteOffset":15832,
			"target":34962
		},
		{
			"buffer":0,
			"byteLength":192,
			"byteOffset":16024,
			"target":34962
		},
		{
			"buffer":0,
			"byteLength":128,
			"byteOffset":16216,
			"target":34962
		},
		{
			"buffer":0,
			"byteLength":48,
			"byteOffset":16344,
			"target":34963
		},
		{
			"buffer":0,
			"byteLength":48,
			"byteOffset":16392,
			"target":34962
		},
		{
			"buffer":0,
			"byteLength":48,
			"byteOffset":16440,
			"target":34962
		},
		{
			"buffer":0,
			"byteLength":32,
			"byteOffset":16488,
			"target":34962
		},
		{
			"buffer":0,
			"byteLength":48,
			"byteOffset":16520,
			"target":34962
		},
		{
			"buffer":0,
			"byteLength":48,
			"byteOffset":16568,
			"target":34962
		},
		{
			"buffer":0,
			"byteLength":32,
			"byteOffset":16616,
			"target":34962
		},
		{
			"buffer":0,
			"byteLength":144,
			"byteOffset":16648,
			"target":34962
		},
		{
			"buffer":0,
			"byteLength":144,
			"byteOffset":16792,
			"target":34962
		},
		{
			"buffer":0,
			"byteLength":96,
			"byteOffset":16936,
			"target":34962
		},
		{
			"buffer":0,
			"byteLength":96,
			"byteOffset":17032,
			"target":34962
		},
		{
			"buffer":0,
			"byteLength":96,
			"byteOffset":17128,
			"target":34962
		},
		{
			"buffer":0,
			"byteLength":64,
			"byteOffset":17224,
			"target":34962
		},
		{
			"buffer":0,
			"byteLength":24,
			"byteOffset":17288,
			"target":34963
		},
		{
			"buffer":0,
			"byteLength":48,
			"byteOffset":17312,
			"target":34962
		},
		{
			"buffer":0,
			"byteLength":48,
			"byteOffset":17360,
			"target":34962
		},
		{
			"buffer":0,
			"byteLength":32,
			"byteOffset":17408,
			"target":34962
		},
		{
			"buffer":0,
			"byteLength":48,
			"byteOffset":17440,
			"target":34962
		},
		{
			"buffer":0,
			"byteLength":48,
			"byteOffset":17488,
			"target":34962
		},
		{
			"buffer":0,
			"byteLength":32,
			"byteOffset":17536,
			"target":34962
		},
		{
			"buffer":0,
			"byteLength":48,
			"byteOffset":17568,
			"target":34962
		},
		{
			"buffer":0,
			"byteLength":48,
			"byteOffset":17616,
			"target":34962
		},
		{
			"buffer":0,
			"byteLength":32,
			"byteOffset":17664,
			"target":34962
		},
		{
			"buffer":0,
			"byteLength":48,
			"byteOffset":17696,
			"target":34962
		},
		{
			"buffer":0,
			"byteLength":48,
			"byteOffset":17744,
			"target":34962
		},
		{
			"buffer":0,
			"byteLength":32,
			"byteOffset":17792,
			"target":34962
		},
		{
			"buffer":0,
			"byteLength":192,
			"byteOffset":17824,
			"target":34962
		},
		{
			"buffer":0,
			"byteLength":192,
			"byteOffset":18016,
			"target":34962
		},
		{
			"buffer":0,
			"byteLength":128,
			"byteOffset":18208,
			"target":34962
		},
		{
			"buffer":0,
			"byteLength":48,
			"byteOffset":18336,
			"target":34962
		},
		{
			"buffer":0,
			"byteLength":48,
			"byteOffset":18384,
			"target":34962
		},
		{
			"buffer":0,
			"byteLength":32,
			"byteOffset":18432,
			"target":34962
		},
		{
			"buffer":0,
			"byteLength":12,
			"byteOffset":18464,
			"target":34963
		},
		{
			"buffer":0,
			"byteLength":48,
			"byteOffset":18476,
			"target":34962
		},
		{
			"buffer":0,
			"byteLength":48,
			"byteOffset":18524,
			"target":34962
		},
		{
			"buffer":0,
			"byteLength":32,
			"byteOffset":18572,
			"target":34962
		},
		{
			"buffer":0,
			"byteLength":48,
			"byteOffset":18604,
			"target":34962
		},
		{
			"buffer":0,
			"byteLength":48,
			"byteOffset":18652,
			"target":34962
		},
		{
			"buffer":0,
			"byteLength":32,
			"byteOffset":18700,
			"target":34962
		},
		{
			"buffer":0,
			"byteLength":984,
			"byteOffset":18732,
			"target":34962
		},
		{
			"buffer":0,
			"byteLength":984,
			"byteOffset":19716,
			"target":34962
		},
		{
			"buffer":0,
			"byteLength":656,
			"byteOffset":20700,
			"target":34962
		},
		{
			"buffer":0,
			"byteLength":360,
			"byteOffset":21356,
			"target":34963
		},
		{
			"buffer":0,
			"byteLength":48,
			"byteOffset":21716,
			"target":34962
		},
		{
			"buffer":0,
			"byteLength":48,
			"byteOffset":21764,
			"target":34962
		},
		{
			"buffer":0,
			"byteLength":32,
			"byteOffset":21812,
			"target":34962
		},
		{
			"buffer":0,
			"byteLength":96,
			"byteOffset":21844,
			"target":34962
		},
		{
			"buffer":0,
			"byteLength":96,
			"byteOffset":21940,
			"target":34962
		},
		{
			"buffer":0,
			"byteLength":64,
			"byteOffset":22036,
			"target":34962
		},
		{
			"buffer":0,
			"byteLength":24,
			"byteOffset":22100,
			"target":34963
		},
		{
			"buffer":0,
			"byteLength":48,
			"byteOffset":22124,
			"target":34962
		},
		{
			"buffer":0,
			"byteLength":48,
			"byteOffset":22172,
			"target":34962
		},
		{
			"buffer":0,
			"byteLength":32,
			"byteOffset":22220,
			"target":34962
		},
		{
			"buffer":0,
			"byteLength":48,
			"byteOffset":22252,
			"target":34962
		},
		{
			"buffer":0,
			"byteLength":48,
			"byteOffset":22300,
			"target":34962
		},
		{
			"buffer":0,
			"byteLength":32,
			"byteOffset":22348,
			"target":34962
		},
		{
			"buffer":0,
			"byteLength":192,
			"byteOffset":22380,
			"target":34962
		},
		{
			"buffer":0,
			"byteLength":192,
			"byteOffset":22572,
			"target":34962
		},
		{
			"buffer":0,
			"byteLength":128,
			"byteOffset":22764,
			"target":34962
		},
		{
			"buffer":0,
			"byteLength":48,
			"byteOffset":22892,
			"target":34962
		},
		{
			"buffer":0,
			"byteLength":48,
			"byteOffset":22940,
			"target":34962
		},
		{
			"buffer":0,
			"byteLength":32,
			"byteOffset":22988,
			"target":34962
		},
		{
			"buffer":0,
			"byteLength":48,
			"byteOffset":23020,
			"target":34962
		},
		{
			"buffer":0,
			"byteLength":48,
			"byteOffset":23068,
			"target":34962
		},
		{
			"buffer":0,
			"byteLength":32,
			"byteOffset":23116,
			"target":34962
		},
		{
			"buffer":0,
			"byteLength":192,
			"byteOffset":23148,
			"target":34962
		},
		{
			"buffer":0,
			"byteLength":192,
			"byteOffset":23340,
			"target":34962
		},
		{
			"buffer":0,
			"byteLength":128,
			"byteOffset":23532,
			"target":34962
		},
		{
			"buffer":0,
			"byteLength":984,
			"byteOffset":23660,
			"target":34962
		},
		{
			"buffer":0,
			"byteLength":984,
			"byteOffset":24644,
			"target":34962
		},
		{
			"buffer":0,
			"byteLength":656,
			"byteOffset":25628,
			"target":34962
		},
		{
			"buffer":0,
			"byteLength":984,
			"byteOffset":26284,
			"target":34962
		},
		{
			"buffer":0,
			"byteLength":984,
			"byteOffset":27268,
			"target":34962
		},
		{
			"buffer":0,
			"byteLength":656,
			"byteOffset":28252,
			"target":34962
		},
		{
			"buffer":0,
			"byteLength":96,
			"byteOffset":28908,
			"target":34962
		},
		{
			"buffer":0,
			"byteLength":96,
			"byteOffset":29004,
			"target":34962
		},
		{
			"buffer":0,
			"byteLength":64,
			"byteOffset":29100,
			"target":34962
		},
		{
			"buffer":0,
			"byteLength":24,
			"byteOffset":29164,
			"target":34963
		},
		{
			"buffer":0,
			"byteLength":48,
			"byteOffset":29188,
			"target":34962
		},
		{
			"buffer":0,
			"byteLength":48,
			"byteOffset":29236,
			"target":34962
		},
		{
			"buffer":0,
			"byteLength":32,
			"byteOffset":29284,
			"target":34962
		},
		{
			"buffer":0,
			"byteLength":48,
			"byteOffset":29316,
			"target":34962
		},
		{
			"buffer":0,
			"byteLength":48,
			"byteOffset":29364,
			"target":34962
		},
		{
			"buffer":0,
			"byteLength":32,
			"byteOffset":29412,
			"target":34962
		},
		{
			"buffer":0,
			"byteLength":12,
			"byteOffset":29444,
			"target":34963
		},
		{
			"buffer":0,
			"byteLength":48,
			"byteOffset":29456,
			"target":34962
		},
		{
			"buffer":0,
			"byteLength":48,
			"byteOffset":29504,
			"target":34962
		},
		{
			"buffer":0,
			"byteLength":32,
			"byteOffset":29552,
			"target":34962
		},
		{
			"buffer":0,
			"byteLength":48,
			"byteOffset":29584,
			"target":34962
		},
		{
			"buffer":0,
			"byteLength":48,
			"byteOffset":29632,
			"target":34962
		},
		{
			"buffer":0,
			"byteLength":32,
			"byteOffset":29680,
			"target":34962
		},
		{
			"buffer":0,
			"byteLength":48,
			"byteOffset":29712,
			"target":34962
		},
		{
			"buffer":0,
			"byteLength":48,
			"byteOffset":29760,
			"target":34962
		},
		{
			"buffer":0,
			"byteLength":32,
			"byteOffset":29808,
			"target":34962
		},
		{
			"buffer":0,
			"byteLength":48,
			"byteOffset":29840,
			"target":34962
		},
		{
			"buffer":0,
			"byteLength":48,
			"byteOffset":29888,
			"target":34962
		},
		{
			"buffer":0,
			"byteLength":32,
			"byteOffset":29936,
			"target":34962
		},
		{
			"buffer":0,
			"byteLength":96,
			"byteOffset":29968,
			"target":34962
		},
		{
			"buffer":0,
			"byteLength":96,
			"byteOffset":30064,
			"target":34962
		},
		{
			"buffer":0,
			"byteLength":64,
			"byteOffset":30160,
			"target":34962
		},
		{
			"buffer":0,
			"byteLength":24,
			"byteOffset":30224,
			"target":34963
		},
		{
			"buffer":0,
			"byteLength":48,
			"byteOffset":30248,
			"target":34962
		},
		{
			"buffer":0,
			"byteLength":48,
			"byteOffset":30296,
			"target":34962
		},
		{
			"buffer":0,
			"byteLength":32,
			"byteOffset":30344,
			"target":34962
		},
		{
			"buffer":0,
			"byteLength":48,
			"byteOffset":30376,
			"target":34962
		},
		{
			"buffer":0,
			"byteLength":48,
			"byteOffset":30424,
			"target":34962
		},
		{
			"buffer":0,
			"byteLength":32,
			"byteOffset":30472,
			"target":34962
		},
		{
			"buffer":0,
			"byteLength":6048,
			"byteOffset":30504,
			"target":34962
		},
		{
			"buffer":0,
			"byteLength":6048,
			"byteOffset":36552,
			"target":34962
		},
		{
			"buffer":0,
			"byteLength":4032,
			"byteOffset":42600,
			"target":34962
		},
		{
			"buffer":0,
			"byteLength":1512,
			"byteOffset":46632,
			"target":34963
		},
		{
			"buffer":0,
			"byteLength":192,
			"byteOffset":48144,
			"target":34962
		},
		{
			"buffer":0,
			"byteLength":192,
			"byteOffset":48336,
			"target":34962
		},
		{
			"buffer":0,
			"byteLength":128,
			"byteOffset":48528,
			"target":34962
		},
		{
			"buffer":0,
			"byteLength":48,
			"byteOffset":48656,
			"target":34962
		},
		{
			"buffer":0,
			"byteLength":48,
			"byteOffset":48704,
			"target":34962
		},
		{
			"buffer":0,
			"byteLength":32,
			"byteOffset":48752,
			"target":34962
		},
		{
			"buffer":0,
			"byteLength":528,
			"byteOffset":48784,
			"target":34962
		},
		{
			"buffer":0,
			"byteLength":528,
			"byteOffset":49312,
			"target":34962
		},
		{
			"buffer":0,
			"byteLength":352,
			"byteOffset":49840,
			"target":34962
		},
		{
			"buffer":0,
			"byteLength":156,
			"byteOffset":50192,
			"target":34963
		},
		{
			"buffer":0,
			"byteLength":96,
			"byteOffset":50348,
			"target":34962
		},
		{
			"buffer":0,
			"byteLength":96,
			"byteOffset":50444,
			"target":34962
		},
		{
			"buffer":0,
			"byteLength":64,
			"byteOffset":50540,
			"target":34962
		},
		{
			"buffer":0,
			"byteLength":48,
			"byteOffset":50604,
			"target":34963
		},
		{
			"buffer":0,
			"byteLength":528,
			"byteOffset":50652,
			"target":34962
		},
		{
			"buffer":0,
			"byteLength":528,
			"byteOffset":51180,
			"target":34962
		},
		{
			"buffer":0,
			"byteLength":352,
			"byteOffset":51708,
			"target":34962
		},
		{
			"buffer":0,
			"byteLength":96,
			"byteOffset":52060,
			"target":34962
		},
		{
			"buffer":0,
			"byteLength":96,
			"byteOffset":52156,
			"target":34962
		},
		{
			"buffer":0,
			"byteLength":64,
			"byteOffset":52252,
			"target":34962
		},
		{
			"buffer":0,
			"byteLength":1728,
			"byteOffset":52316,
			"target":34962
		},
		{
			"buffer":0,
			"byteLength":1728,
			"byteOffset":54044,
			"target":34962
		},
		{
			"buffer":0,
			"byteLength":1152,
			"byteOffset":55772,
			"target":34962
		},
		{
			"buffer":0,
			"byteLength":816,
			"byteOffset":56924,
			"target":34963
		},
		{
			"buffer":0,
			"byteLength":168,
			"byteOffset":57740,
			"target":34962
		},
		{
			"buffer":0,
			"byteLength":168,
			"byteOffset":57908,
			"target":34962
		},
		{
			"buffer":0,
			"byteLength":112,
			"byteOffset":58076,
			"target":34962
		},
		{
			"buffer":0,
			"byteLength":72,
			"byteOffset":58188,
			"target":34963
		},
		{
			"buffer":0,
			"byteLength":1836,
			"byteOffset":58260,
			"target":34962
		},
		{
			"buffer":0,
			"byteLength":1836,
			"byteOffset":60096,
			"target":34962
		},
		{
			"buffer":0,
			"byteLength":1224,
			"byteOffset":61932,
			"target":34962
		},
		{
			"buffer":0,
			"byteLength":1536,
			"byteOffset":63156,
			"target":34963
		},
		{
			"buffer":0,
			"byteLength":1728,
			"byteOffset":64692,
			"target":34962
		},
		{
			"buffer":0,
			"byteLength":1728,
			"byteOffset":66420,
			"target":34962
		},
		{
			"buffer":0,
			"byteLength":1152,
			"byteOffset":68148,
			"target":34962
		},
		{
			"buffer":0,
			"byteLength":1440,
			"byteOffset":69300,
			"target":34963
		},
		{
			"buffer":0,
			"byteLength":288,
			"byteOffset":70740,
			"target":34962
		},
		{
			"buffer":0,
			"byteLength":288,
			"byteOffset":71028,
			"target":34962
		},
		{
			"buffer":0,
			"byteLength":192,
			"byteOffset":71316,
			"target":34962
		},
		{
			"buffer":0,
			"byteLength":72,
			"byteOffset":71508,
			"target":34963
		},
		{
			"buffer":0,
			"byteLength":288,
			"byteOffset":71580,
			"target":34962
		},
		{
			"buffer":0,
			"byteLength":288,
			"byteOffset":71868,
			"target":34962
		},
		{
			"buffer":0,
			"byteLength":192,
			"byteOffset":72156,
			"target":34962
		},
		{
			"buffer":0,
			"byteLength":288,
			"byteOffset":72348,
			"target":34962
		},
		{
			"buffer":0,
			"byteLength":288,
			"byteOffset":72636,
			"target":34962
		},
		{
			"buffer":0,
			"byteLength":192,
			"byteOffset":72924,
			"target":34962
		},
		{
			"buffer":0,
			"byteLength":288,
			"byteOffset":73116,
			"target":34962
		},
		{
			"buffer":0,
			"byteLength":288,
			"byteOffset":73404,
			"target":34962
		},
		{
			"buffer":0,
			"byteLength":192,
			"byteOffset":73692,
			"target":34962
		},
		{
			"buffer":0,
			"byteLength":4644,
			"byteOffset":73884,
			"target":34962
		},
		{
			"buffer":0,
			"byteLength":4644,
			"byteOffset":78528,
			"target":34962
		},
		{
			"buffer":0,
			"byteLength":3096,
			"byteOffset":83172,
			"target":34962
		},
		{
			"buffer":0,
			"byteLength":4032,
			"byteOffset":86268,
			"target":34963
		},
		{
			"buffer":0,
			"byteLength":1404,
			"byteOffset":90300,
			"target":34962
		},
		{
			"buffer":0,
			"byteLength":1404,
			"byteOffset":91704,
			"target":34962
		},
		{
			"buffer":0,
			"byteLength":936,
			"byteOffset":93108,
			"target":34962
		},
		{
			"buffer":0,
			"byteLength":1152,
			"byteOffset":94044,
			"target":34963
		},
		{
			"buffer":0,
			"byteLength":1404,
			"byteOffset":95196,
			"target":34962
		},
		{
			"buffer":0,
			"byteLength":1404,
			"byteOffset":96600,
			"target":34962
		},
		{
			"buffer":0,
			"byteLength":936,
			"byteOffset":98004,
			"target":34962
		},
		{
			"buffer":0,
			"byteLength":3348,
			"byteOffset":98940,
			"target":34962
		},
		{
			"buffer":0,
			"byteLength":3348,
			"byteOffset":102288,
			"target":34962
		},
		{
			"buffer":0,
			"byteLength":2232,
			"byteOffset":105636,
			"target":34962
		},
		{
			"buffer":0,
			"byteLength":2880,
			"byteOffset":107868,
			"target":34963
		},
		{
			"buffer":0,
			"byteLength":2052,
			"byteOffset":110748,
			"target":34962
		},
		{
			"buffer":0,
			"byteLength":2052,
			"byteOffset":112800,
			"target":34962
		},
		{
			"buffer":0,
			"byteLength":1368,
			"byteOffset":114852,
			"target":34962
		},
		{
			"buffer":0,
			"byteLength":1728,
			"byteOffset":116220,
			"target":34963
		},
		{
			"buffer":0,
			"byteLength":2052,
			"byteOffset":117948,
			"target":34962
		},
		{
			"buffer":0,
			"byteLength":2052,
			"byteOffset":120000,
			"target":34962
		},
		{
			"buffer":0,
			"byteLength":1368,
			"byteOffset":122052,
			"target":34962
		},
		{
			"buffer":0,
			"byteLength":2052,
			"byteOffset":123420,
			"target":34962
		},
		{
			"buffer":0,
			"byteLength":2052,
			"byteOffset":125472,
			"target":34962
		},
		{
			"buffer":0,
			"byteLength":1368,
			"byteOffset":127524,
			"target":34962
		},
		{
			"buffer":0,
			"byteLength":48,
			"byteOffset":128892,
			"target":34962
		},
		{
			"buffer":0,
			"byteLength":48,
			"byteOffset":128940,
			"target":34962
		},
		{
			"buffer":0,
			"byteLength":32,
			"byteOffset":128988,
			"target":34962
		},
		{
			"buffer":0,
			"byteLength":12,
			"byteOffset":129020,
			"target":34963
		}
	],
	"samplers":[
		{
			"magFilter":9729,
			"minFilter":9987
		}
	],
	"buffers":[
		{
			"byteLength":129032,
			"uri":"warehouse_2.bin"
		}
	]
}
