{
	"asset":{
		"generator":"Khronos glTF Blender I/O v5.0.21",
		"version":"2.0"
	},
	"scene":0,
	"scenes":[
		{
			"name":"Scene",
			"nodes":[
				0
			]
		}
	],
	"nodes":[
		{
			"mesh":0,
			"name":"Plane -col"
		}
	],
	"meshes":[
		{
			"name":"Plane",
			"primitives":[
				{
					"attributes":{
						"POSITION":0,
						"NORMAL":1,
						"TEXCOORD_0":2
					},
					"indices":3
				}
			]
		}
	],
	"accessors":[
		{
			"bufferView":0,
			"componentType":5126,
			"count":205,
			"max":[
				41.89826965332031,
				8.340747833251953,
				11.206218719482422
			],
			"min":[
				-15.076251029968262,
				0,
				-23.455135345458984
			],
			"type":"VEC3"
		},
		{
			"bufferView":1,
			"componentType":5126,
			"count":205,
			"type":"VEC3"
		},
		{
			"bufferView":2,
			"componentType":5126,
			"count":205,
			"type":"VEC2"
		},
		{
			"bufferView":3,
			"componentType":5123,
			"count":483,
			"type":"SCALAR"
		}
	],
	"bufferViews":[
		{
			"buffer":0,
			"byteLength":2460,
			"byteOffset":0,
			"target":34962
		},
		{
			"buffer":0,
			"byteLength":2460,
			"byteOffset":2460,
			"target":34962
		},
		{
			"buffer":0,
			"byteLength":1640,
			"byteOffset":4920,
			"target":34962
		},
		{
			"buffer":0,
			"byteLength":966,
			"byteOffset":6560,
			"target":34963
		}
	],
	"buffers":[
		{
			"byteLength":7528,
			"uri":"yeti_hollow.bin"
		}
	]
}
