{
	"asset":{
		"generator":"Khronos glTF Blender I/O v5.0.21",
		"version":"2.0"
	},
	"scene":0,
	"scenes":[
		{
			"name":"Scene",
			"nodes":[
				0
			]
		}
	],
	"nodes":[
		{
			"mesh":0,
			"name":"Plane -col"
		}
	],
	"meshes":[
		{
			"name":"Plane",
			"primitives":[
				{
					"attributes":{
						"POSITION":0,
						"NORMAL":1,
						"TEXCOORD_0":2
					},
					"indices":3
				}
			]
		}
	],
	"accessors":[
		{
			"bufferView":0,
			"componentType":5126,
			"count":629,
			"max":[
				41.89826965332031,
				11.035197257995605,
				26.009836196899414
			],
			"min":[
				-15.55395793914795,
				0,
				-34.075584411621094
			],
			"type":"VEC3"
		},
		{
			"bufferView":1,
			"componentType":5126,
			"count":629,
			"type":"VEC3"
		},
		{
			"bufferView":2,
			"componentType":5126,
			"count":629,
			"type":"VEC2"
		},
		{
			"bufferView":3,
			"componentType":5123,
			"count":1281,
			"type":"SCALAR"
		}
	],
	"bufferViews":[
		{
			"buffer":0,
			"byteLength":7548,
			"byteOffset":0,
			"target":34962
		},
		{
			"buffer":0,
			"byteLength":7548,
			"byteOffset":7548,
			"target":34962
		},
		{
			"buffer":0,
			"byteLength":5032,
			"byteOffset":15096,
			"target":34962
		},
		{
			"buffer":0,
			"byteLength":2562,
			"byteOffset":20128,
			"target":34963
		}
	],
	"buffers":[
		{
			"byteLength":22692,
			"uri":"yeti_hollow.bin"
		}
	]
}
